
<svg version="1.0" xmlns="http://www.w3.org/2000/svg"
  viewBox="0 0 1000.000000 1000.000000"
 preserveAspectRatio="xMidYMid meet">

<g transform="translate(0.000000,1000.000000) scale(0.100000,-0.100000)"
fill="#df3232" stroke="none">
<!-- large shape -->
<path d="M3229 8313 c-74 -24 -138 -79 -178 -153 l-36 -65 0 -2055 c0 -2005 0
-2056 19 -2105 26 -65 103 -147 169 -176 l52 -24 1003 -3 1003 -2 -29 42 c-85
124 -142 287 -142 405 l0 63 -260 0 c-240 0 -264 2 -299 20 -70 35 -102 125
-73 200 14 36 63 79 103 90 19 6 177 10 361 10 l327 0 48 30 c122 78 280 83
436 15 13 -6 17 -2 16 16 0 18 -17 35 -71 69 -90 57 -220 185 -277 272 l-43
68 -782 2 -781 3 -34 24 c-35 25 -70 90 -71 130 0 42 39 109 78 133 l37 23
726 3 727 3 5 147 c5 141 10 170 54 304 5 17 -39 18 -759 20 l-765 3 -35 27
c-95 73 -81 216 26 267 42 21 53 21 910 21 l867 0 62 44 c34 24 81 53 103 64
34 17 45 30 58 68 63 187 247 289 456 255 115 -19 207 -77 272 -171 16 -24 17
20 15 835 l-2 860 -25 50 c-31 64 -92 124 -155 156 l-50 24 -1510 2 c-1341 2
-1515 0 -1556 -14z m1505 -745 c33 -30 406 -879 406 -925 0 -65 -98 -108 -149
-65 -12 9 -47 76 -79 147 l-58 130 -179 0 -178 0 -53 -125 c-59 -136 -86 -170
-137 -170 -43 0 -73 22 -87 65 -11 34 -5 51 181 476 111 253 204 451 218 465
31 31 81 32 115 2z m-412 -16 c18 -17 23 -34 23 -72 0 -74 -15 -84 -133 -90
l-97 -5 -3 -392 -2 -392 -26 -20 c-37 -29 -95 -28 -131 3 l-28 24 -3 389 -3
388 -77 3 c-110 3 -121 7 -138 49 -26 61 -3 122 51 136 11 3 138 4 282 4 259
-2 263 -2 285 -25z m1048 13 c21 -11 45 -47 91 -135 35 -66 65 -117 68 -114 3
3 33 58 66 122 69 135 90 153 156 133 43 -13 69 -43 69 -81 0 -14 -42 -106
-94 -205 l-93 -180 109 -219 c94 -188 109 -224 103 -252 -12 -66 -94 -96 -148
-54 -15 12 -58 84 -99 166 l-72 145 -73 -144 c-42 -84 -83 -154 -99 -166 -36
-28 -86 -27 -121 3 -51 44 -41 82 80 311 l105 200 -95 189 c-89 175 -95 191
-87 225 7 27 18 40 44 53 43 22 53 22 90 3z"/>
<!-- A triangle -->
<path d="M4630 7160 c-23 -55 -40 -103 -38 -106 3 -3 44 -4 91 -2 l86 3 -42
97 c-24 54 -46 100 -49 103 -3 3 -25 -40 -48 -95z"/>
<!-- $ Dollar sign -->
<path d="M6075 6321 c-59 -36 -85 -88 -85 -171 l0 -48 -52 -17 c-151 -48 -313
-187 -380 -325 -82 -167 -89 -399 -18 -565 66 -153 214 -296 408 -394 l42 -21
0 -405 c0 -333 -2 -405 -13 -405 -26 0 -133 77 -169 121 -41 50 -78 121 -102
196 -32 96 -118 147 -223 130 -47 -8 -109 -50 -133 -90 -70 -114 -8 -340 136
-496 127 -137 272 -219 492 -277 8 -2 12 -26 12 -71 1 -141 64 -201 198 -190
107 8 150 57 159 181 l6 74 66 16 c87 21 211 82 289 141 164 124 264 325 279
560 20 331 -153 572 -557 775 l-80 40 0 306 0 305 28 -19 c47 -34 60 -55 97
-157 47 -130 66 -159 115 -179 74 -29 149 -15 211 41 85 77 88 219 8 382 -73
148 -220 269 -391 322 l-67 21 -6 62 c-9 77 -38 133 -85 157 -47 26 -144 26
-185 0z m-90 -1069 c-9 -9 -55 40 -83 88 -53 89 -29 231 54 329 l29 35 3 -224
c1 -122 0 -225 -3 -228z m452 -693 c153 -105 195 -225 137 -394 -21 -61 -99
-142 -172 -179 l-52 -26 0 325 0 326 23 -12 c12 -7 41 -25 64 -40z"/>

</g>
</svg>
