<svg xmlns="http://www.w3.org/2000/svg" xmlns:xlink="http://www.w3.org/1999/xlink" viewBox="0 0 400 300" width="406" height="306" class="illustration styles_illustrationTablet__1DWOa">
  <defs>
  <linearGradient id="linear-gradient" x1="64.35" y1="222.9" x2="78.36" y2="202.98" gradientUnits="userSpaceOnUse">
  <stop offset="0" stop-color="#fff" stop-opacity="0"></stop>
  <stop offset="1" stop-color="#d43500"></stop>
  </linearGradient>
  <linearGradient id="linear-gradient-2" x1="287.74" y1="218.37" x2="301.75" y2="198.46" xlink:href="#linear-gradient"></linearGradient>
  <linearGradient id="linear-gradient-3" x1="212.82" y1="251.66" x2="192.97" y2="263.52" gradientUnits="userSpaceOnUse">
  <stop offset="0" stop-color="gray"></stop>
  <stop offset="1" stop-color="#fff"></stop>
  </linearGradient>
  </defs>
  <title>HA</title>
  <g style="isolation: isolate;">
  <g id="Layer_2" data-name="Layer 2">
  <path d="M202.77,284.74l144.86-85.61c4.61-2.59,8.57-6.84,4.07-9.63L206.32,105.72c-2.18-1.35-5.49-2.24-7.71-.95L46.55,193c-4.61,2.68-5.44,10.16-.82,12.84l138,78.75A19.26,19.26,0,0,0,202.77,284.74Z" fill="#8170d6"></path>
  <path d="M75.25,216.33l29.33-16.87-24.43-9.21L53.18,205A200.77,200.77,0,0,0,75.25,216.33Z" opacity="0.32" fill="url(#linear-gradient)"></path>
  <polyline points="76.5 177.36 76.5 195.48 105.81 195.48 105.81 177.36" fill="#f8997c">
  </polyline>
  <ellipse cx="91.16" cy="177.36" rx="14.66" ry="7.21" fill="#dd654a"></ellipse>
  <ellipse cx="91.16" cy="196.18" rx="14.66" ry="7.21" fill="#f8997c"></ellipse>
  <path d="M107.57,135.23c-3.09-1.26-7.38-5.48-11.12-5.35C95,133.38,94.6,137.46,94.18,141a100.92,100.92,0,0,0-.42,18.56q.13,2.07.34,4.12a3.29,3.29,0,0,0,.33,1.16q0,7.17,0,14.34a.46.46,0,0,0,.91,0q0-6.9,0-13.8a20.34,20.34,0,0,0,4.2-1.94,14.28,14.28,0,0,0,5.91-7.42c2.37-6.59.87-13.94,3.12-20.46C108.22,135.48,107.89,135.37,107.57,135.23Z" fill="#297600"></path>
  <path d="M101.23,124.44A11.49,11.49,0,0,0,97,128.72a7.18,7.18,0,0,0-.66,1.27l-.13.28h0a19.16,19.16,0,0,0-.7,2.27,2.83,2.83,0,0,1,1.56-1.23,3.88,3.88,0,0,1,2.45-.23,10.25,10.25,0,0,1,2.24,1.2c1,.63,2.05,1.34,3.09,2,4.86,3.09,11.32,3.4,15.07-1.09,0-.18.09-.36.13-.54C120.64,129.58,112,118.2,101.23,124.44Z" fill="#5fad00"></path>
  <path d="M117.81,135.1c.2-.14.4-.27.61-.4a.42.42,0,0,0-.12-.35c-2.94-3-6.09-6-10.1-7.46a17.3,17.3,0,0,0-9-.89c-.33.38-.62.78-.92,1.18,3.27-1.09,7.4-.41,10.37.86,3.55,1.51,6.37,4.22,9,6.95A.44.44,0,0,0,117.81,135.1Z" fill="#297600"></path>
  <path d="M68.61,141.67a12.24,12.24,0,0,0-6.55,11.74c.35,8.65,14.6.2,18.38-7.09s4.38,3.11,4.38,3.11" fill="#297600"></path>
  <path d="M81.43,138.65a25.8,25.8,0,0,0-7.91,1.1,19.19,19.19,0,0,0-4.92,1.92,15.87,15.87,0,0,0,2.85,1.52c1.79.72,3.66,1.62,4.6,3.3a6.57,6.57,0,0,1,.55,1.3c.87,2.84.12,6.3,1.29,9.16s3.56,5.39,6.92,5.59c4,.24,5.85-3.61,6.65-6.95s1.88-7.89.61-11.32C90.6,140.27,85.23,138.83,81.43,138.65Z" fill="#5fad00"></path>
  <path d="M86.72,152.15c-1.68-5.46-5.26-10.62-10.49-13H76l-.25.08-.95.24c6.09,2.26,9.92,8.27,11.48,14.4,2,7.85,1.32,16.35,1.34,24.37a.42.42,0,0,0,.84,0C88.48,169.65,89.28,160.45,86.72,152.15Z" fill="#297600"></path>
  <path d="M305.09,179.67a3.9,3.9,0,0,1-1.63-.35l-.25,1.64,26.42.68v-2Z" fill="#ef8a3f">
  </path>
  <path d="M303.45,179.38l-.24,1.58,14.59,8.42v-2C312.88,185,308.14,182.21,303.45,179.38Z" fill="#ef8a3f"></path>
  <path d="M318.18,65.48a4.21,4.21,0,0,1-2.54-.36L298.91,194.25c1,.62,2.07,1.17,3.1,1.76L318.94,65.39Z" fill="#ef8a3f"></path>
  <path d="M322,65.33a8.43,8.43,0,0,1-1.83,0c-.49,0-1,0-1.47.07L330,197.83a26.84,26.84,0,0,1,2.67-1.13l.44-.23.08,0Z" fill="#ef8a3f"></path>
  <path d="M320.2,65.34a15.19,15.19,0,0,0-2,.14,5,5,0,0,1-.79,0l-1.1,140h0a3.45,3.45,0,0,1,1.77-.14l1,0,.56-.06,1.1-139.89Z" fill="#ef8a3f"></path>
  <path d="M301.94,67.57V96.49s33.28,1,33.28,0V67.57" fill="#ff6753"></path>
  <ellipse cx="318.58" cy="67.51" rx="16.64" ry="7.71" fill="#d64338"></ellipse>
  <ellipse cx="318.58" cy="96.93" rx="16.64" ry="7.71" fill="#ff6753"></ellipse>
  <polyline points="331.32 197.3 283.37 224.88 263.67 211.71 298.91 194.25" opacity="0.32" fill="url(#linear-gradient-2)"></polyline>
  <path d="M225.53,254.05a112.29,112.29,0,0,0-17.82-11.14c-8.51,5-12.37,8-25.47,15.44,9.91,6,17.59,11.56,18.71,12.22l16.85-10.33C218,259.6,225.38,254.7,225.53,254.05Z" fill="url(#linear-gradient-3)" style="mix-blend-mode: multiply;"></path>
  <path d="M168.18,151.66l74.75,42.94V60.05s.54-6.61-4.55-7.24L168.18,26Z" fill="#68e1fd">
  </path>
  <path d="M168.18,151.66l74.75,42.94V60.05s.54-6.61-4.55-7.24L168.18,26Z" opacity="0.14">
  </path>
  <path d="M231.59,71S230.28,56,241,54.21l-72.2-41.42s-5.18-2.29-8.24,2.18-3.27,9.48-2.94,13.19Z" fill="#68e1fd"></path>
  <path d="M179,123.83l47.82,27.23a1.13,1.13,0,0,0,1.14-1.94l-47.82-27.23a1.13,1.13,0,0,0-1.14,1.94Z" fill="#f2f2f2"></path>
  <path d="M179,130.9l47.82,27.23a1.13,1.13,0,0,0,1.14-1.94L180.11,129A1.13,1.13,0,0,0,179,130.9Z" fill="#f2f2f2"></path>
  <path d="M179,138.09l47.82,27.23a1.13,1.13,0,0,0,1.14-1.94l-47.82-27.23a1.13,1.13,0,0,0-1.14,1.94Z" fill="#f2f2f2"></path>
  <path d="M177.8,97.25l47.82,27.23a1.13,1.13,0,0,0,1.14-1.94L178.93,95.31a1.13,1.13,0,0,0-1.14,1.94Z" fill="#f2f2f2"></path>
  <path d="M177.8,104.32l47.82,27.23a1.13,1.13,0,0,0,1.14-1.94l-47.82-27.23a1.13,1.13,0,0,0-1.14,1.94Z" fill="#f2f2f2"></path>
  <path d="M177.8,111.51l47.82,27.23a1.13,1.13,0,0,0,1.14-1.94l-47.82-27.23a1.13,1.13,0,0,0-1.14,1.94Z" fill="#f2f2f2"></path>
  <ellipse cx="202.28" cy="82.25" rx="13.27" ry="18.55" transform="matrix(0.96, -0.28, 0.28, 0.96, -14.98, 60.35)" fill="#fff">
  </ellipse>
  <path d="M193.17,81.61l4.51,9.54c.54,1.13,2,.8,2.59,0L210.5,77.8c1.17-1.53-1.43-3-2.59-1.51L197.68,89.64h2.59l-4.51-9.54c-.82-1.74-3.41-.22-2.59,1.51Z" fill="#5fad00"></path>
  <ellipse cx="202.2" cy="82.01" rx="14.94" ry="20.88" transform="matrix(0.96, -0.28, 0.28, 0.96, -14.92, 60.32)" fill="none" stroke="#f2f2f2" stroke-miterlimit="10"></ellipse>
  <path d="M197.41,114.42a52.34,52.34,0,0,1-1.6-5.05c-.2-1.21,1-5.81.16-6.07s-1.89,2.86-1.89,2.86-2.5-5.64-3.18-5.91-2.71-.45-3.2.06-1.84,3.8-1.24,4.92a64.16,64.16,0,0,0,4.22,5.76c.22.17,2.85,5.83,3.2,6S197.15,115.69,197.41,114.42Z" fill="#ffc9b5"></path>
  <path d="M224.84,132.67s-13.74-5.43-16.13-7.4-11-12.12-11-12.12-5,1.83-4.94,4.34c0,0,7,11.69,10.25,14.82s15.11,11,17.71,10.82S224.84,132.67,224.84,132.67Z" fill="#dd8c2a"></path>
  <path d="M216.07,243.88s-3.28-2.8-7-1.72-2.92,3.84-.6,5.57,11.25,7.74,14,7.68,3.35-2.27,3.41-3.79a70.16,70.16,0,0,0-.81-7" fill="#768cfb"></path>
  <path d="M218.12,243.68a.7.7,0,0,1-.92.57,26.85,26.85,0,0,1-2.93-1.12s-3.17,0-1.24,3.17,8.58,4.1,10.63,2.92.68-4.54.68-4.54" fill="#ffc9b5"></path>
  <path d="M208.35,250.06s-3.28-2.8-7-1.72-2.92,3.84-.6,5.57,11.25,7.74,14,7.68,3.35-2.27,3.41-3.79a70.16,70.16,0,0,0-.81-7" fill="#768cfb"></path>
  <path d="M210.39,249.86a.7.7,0,0,1-.92.57,26.85,26.85,0,0,1-2.93-1.12s-3.17,0-1.24,3.17,8.58,4.1,10.63,2.92.68-4.54.68-4.54" fill="#ffc9b5"></path>
  <path d="M206.95,163.6c-1.07,2.42-1.65,37.07-1.24,46s4.68,40.29,4.68,40.29,2.43,3.69,6.53,3.43,3.3-3.56,3.3-3.56,5.24,2.43,7.53-2.91c.85-2,4.84-57.21,4.84-63.5a43.87,43.87,0,0,0-6-21.36" fill="#53b7b7"></path>
  <path d="M220.23,249.73s2.49-70,2.17-72.07.68,15.35.61,20.11C223,201.17,220.9,245,220.23,249.73Z" fill="#259993"></path>
  <path d="M206.95,163.6s-3.62-24.79,1.53-29.47,19.46-8,22.13-5.67-1.34,28.62-4,33.5S208.85,165.51,206.95,163.6Z" fill="#f9aa43"></path>
  <path d="M213.47,115.9c-.12.35-2.66,10,1.77,11.4s5.32-3.89,5.76-4.19,1.83-.77,1.76-1.84-1.75-1.09-1.75-1.09-.65-2.8-2.64-4S213.47,115.9,213.47,115.9Z" fill="#ffc9b5"></path>
  <path d="M217.6,118.62s-3.7.06-5.3-1.52a3.11,3.11,0,0,1,.26-4.57s-1.47-2.93,1.29-3.64c0,0,.25-2.69,5.75-1.46s10.52,5.12,10.59,10.15.44,5.61,2.22,6.76,1.29,5.56-3.47,5.74-11.25-.24-11.86-2.59,3-2.6,3.45-5A3.43,3.43,0,0,0,217.6,118.62Z" fill="#2c1d1a"></path>
  <path d="M199.8,160s-3.81,4.06-4.91,4.5a34.11,34.11,0,0,0-4.84,2.71,8.51,8.51,0,0,1,1.35,1.54.52.52,0,0,1,0,.06c.49-.35.83-.61.82-.43,0,.57-3.75,5.45-4.32,6.19s1,3.16,1,3.16c2.42.81,5.21-1.64,7-3.3s2.62-5.5,3.24-6,5.73-3.87,6.09-4.92S199.8,160,199.8,160Z" fill="#ffc9b5"></path>
  <path d="M207.3,135.9c-1,2.21-1,4.63-1.42,7-.33,1.69-.67,3.46-1.06,5.17a16.31,16.31,0,0,1-1.62,5c-1.4,2.33-3.22,4.35-4.81,6.54a4,4,0,0,0-.93,1.68c-.15,1.53,1.78,5.89,7.13,5.35a66.3,66.3,0,0,0,7.56-7.16c3-3.53,5.84-15.47,5.55-19.44-.2-2.7-1.67-5.72-4.23-6.9a4.48,4.48,0,0,0-5,1.13A6,6,0,0,0,207.3,135.9Z" fill="#f9aa43"></path>
  <path d="M207.6,164s4.47-3.8,5.57-6.09,2.53-6.41,2.53-6.41-2.07,11.91-4.05,13.5A22.92,22.92,0,0,1,207.6,164Z" fill="#dd8c2a"></path>
  </g>
  </g>
  </svg>