<svg id="Layer_1" data-name="Layer 1" xmlns="http://www.w3.org/2000/svg" viewBox="0 0 581.12 583.09">
  <defs>
    <style>
      .cls-1 {
        fill: #ee3e96;
      }
    </style>
  </defs>
  <g>
    <path class="cls-1" d="M208.88,669.25c70.71-17.86,127.39-55.86,168.39-116S433,426.52,422.76,353.65a12.35,12.35,0,0,1,1.34,1.62,13.31,13.31,0,0,1,.76,1.83c10.95,31.66,25,61.87,44.28,89.32,12.5,17.79,27,34,46.69,44.15,18.67,9.63,39.11,8.41,55.41-9,12.82-13.66,19.59-30.47,24.6-48.15a77.92,77.92,0,0,1,3.9-11.82c-4.51,101.76-48,182.2-135.54,235.23C382.3,706.47,296.23,709.23,208.88,669.25Z" transform="translate(-18.61 -113.81)"/>
    <path class="cls-1" d="M594.89,364.35C543.5,311.14,481.75,281,408.44,276.08c-73-4.94-137.87,16.63-195.19,61.6,8.56-10.94,17.43-21.66,25.62-32.87,20.08-27.47,37.31-56.46,45.49-90a88.42,88.42,0,0,0,1.73-35.12c-3.25-20.54-18.49-33.17-37.69-36.5-20.82-3.6-40.83.34-60.59,6.53l-3.19,1c9.87-12,77.3-33,108.6-35.7,38.81-3.35,76.78-.12,113.72,12C530.14,167.46,590.93,275.73,594.89,364.35Z" transform="translate(-18.61 -113.81)"/>
    <path class="cls-1" d="M135,175.32c-19.59,70.65-15,139.17,17,205.17S235.6,492,303.53,519.46c-7.61-1.25-15.21-2.6-22.84-3.72-37.53-5.52-75-7.62-112.38,1.36-11.69,2.81-22.95,6.9-32.88,13.8C114.7,545.32,109,565.05,118.67,589c7.11,17.67,19.24,31.72,33.05,44.46,1.4,1.28,3,2.38,3.86,4.15a264.76,264.76,0,0,1-82.66-73.86C41,520.29,22.09,471.6,19.14,417.81,13.55,316.16,52.69,235.26,135,175.32Z" transform="translate(-18.61 -113.81)"/>
    <path class="cls-1" d="M244.87,223.88c0,25.63-21.52,47.34-47.05,47.43-26,.09-47.9-21.71-47.69-47.45a47.77,47.77,0,0,1,47.75-47.49C223.47,176.26,244.85,197.89,244.87,223.88Z" transform="translate(-18.61 -113.81)"/>
    <path class="cls-1" d="M165.85,589.64c-.63-25.88,21.34-47.57,48-47.35,25.14.21,46.19,22.27,46.08,48.14-.09,24-19.86,46.64-47.28,46.59C185.8,637,164.61,614.19,165.85,589.64Z" transform="translate(-18.61 -113.81)"/>
    <path class="cls-1" d="M529,442.35c-25.65-.08-47.3-21.92-47.1-47.52.2-25.26,21.84-47,46.75-47,27.46,0,47.5,20.78,47.7,46.56C576.54,422,555,441.76,529,442.35Z" transform="translate(-18.61 -113.81)"/>
  </g>
  <path class="cls-1" d="M343.29,384.25a128.27,128.27,0,0,0-3.25-22c-4.33-16.61-14.45-30.34-31.79-30.34s-33.59,7.59-52.38,23.84c-.36.36-.72.72-1.08.72-1.09,0-4-4.33-2.17-6.14,20.23-21.31,47-36.48,84.53-36.48,48.41,0,56,40.82,56,77.3,0,6.87-.72,27.46-1.44,39.74-.73,16.25-1.45,32.15-1.45,37.93,0,2.53.72,3.61,3.61,4.33L409,476.73a4,4,0,0,1,2.16,3.61c0,.72-.36,1.08-1.44,1.08-4.34-.36-19.15-.36-33.24-.36-12.28,0-19.86,0-26,.36-1.09,0-1.81-.36-1.81-1.8-.36-2.89-1.08-15.9-1.08-23.85,0-1.8-.37-7.22-.37-10.11l-1.08-.72c-1.44,2.89-3.25,6.14-5.06,9-9,13.72-27.09,30-57.43,30-23.48,0-48.05-15.53-48.05-48.41,0-32.51,20.95-66.1,67.55-66.1,14.45,0,26,5.06,31.43,9.39a50.82,50.82,0,0,1,7.23,5.78Zm-32.51,81.28c14.09,0,27.09-13.73,34-33.6a39.71,39.71,0,0,0,2.52-13A35.73,35.73,0,0,0,344,405.2c-4.69-12.28-15.89-26.73-31.42-26.73-18.43,0-26.74,23.48-26.74,48,0,25.29,10.12,39,24.57,39Z" transform="translate(-18.61 -113.81)"/>
</svg>
