<svg id="Layer_1" data-name="Layer 1" xmlns="http://www.w3.org/2000/svg" viewBox="0 0 578.88 570.48">
  <defs>
    <style>
      .cls-1 {
        fill: #fff;
      }
    </style>
  </defs>
  <g>
    <path class="cls-1" d="M125,175.32c-19.59,70.65-36,147.17-4,213.17S192.6,502,260.53,529.46c-7.61-1.25-98.32-31.61-134.27.84C117.33,538.35,99,565.05,108.67,589c7.11,17.67,19.24,31.72,33.05,44.46,1.4,1.28,3,2.38,3.86,4.15a264.76,264.76,0,0,1-82.66-73.86C31,520.29,12.09,471.6,9.14,417.81,3.55,316.16,42.69,235.26,125,175.32Z" transform="translate(-8.61 -116.58)"/>
    <path class="cls-1" d="M150.15,584.64c-.49-20.2,16.67-37.14,37.51-37,19.63.17,36.07,17.39,36,37.59a36.9,36.9,0,0,1-36.92,36.38C165.74,621.6,149.19,603.82,150.15,584.64Z" transform="translate(-8.61 -116.58)"/>
    <path class="cls-1" d="M587.49,365.34C535.89,313.25,477.62,261,404.41,256.07s-134,5.76-191.61,51.07c4.87-6,76.25-69.65,65.94-117-2.56-11.75-16.64-40.89-42.21-44.41-18.88-2.59-37.1,1-55,6.62-1.81.57-3.53,1.39-5.51,1.29a264.75,264.75,0,0,1,105.14-35.08c53.56-6.14,105.22,1.62,153.38,25.76C525.55,190,576.34,264.11,587.49,365.34Z" transform="translate(-8.61 -116.58)"/>
    <path class="cls-1" d="M219.7,183.94c17.78,9.6,24,32.9,13.47,50.91-9.89,17-33,22.67-50.49,12.57a36.9,36.9,0,0,1-13.25-50.11C179.88,179.11,203.54,173.57,219.7,183.94Z" transform="translate(-8.61 -116.58)"/>
    <path class="cls-1" d="M185.59,655.23C257.29,639.89,332.72,619,376.37,560s67.46-115.94,60.39-188.88c2.41,7.33,17.5,101.78,62.9,118.63,11.27,4.18,43.41,8,60.17-11.58,12.36-14.49,19.21-31.75,24.1-49.89.5-1.83.74-3.72,1.89-5.33a264.57,264.57,0,0,1-27.19,107.45c-23.73,48.41-58.14,87.71-104.45,115.24C366.67,697.69,276.84,700.45,185.59,655.23Z" transform="translate(-8.61 -116.58)"/>
    <path class="cls-1" d="M536.77,443.45c-17.68,9.78-40.64,2.42-50.14-16.14-8.94-17.47-1.28-40,16.66-49.29a36.89,36.89,0,0,1,49.34,15.88C562.31,412.52,554.21,435.43,536.77,443.45Z" transform="translate(-8.61 -116.58)"/>
  </g>
  <path class="cls-1" d="M337.07,374a166.19,166.19,0,0,0-4.19-28.44c-5.6-21.46-18.66-39.18-41-39.18s-43.37,9.8-67.62,30.78c-.47.47-.94.93-1.4.93-1.4,0-5.13-5.59-2.8-7.92,26.11-27.52,60.62-47.11,109.12-47.11,62.49,0,72.29,52.7,72.29,99.8,0,8.86-.93,35.45-1.87,51.3-.93,21-1.86,41.51-1.86,49,0,3.26.93,4.66,4.66,5.59L422,493.38a5.14,5.14,0,0,1,2.8,4.66c0,.93-.47,1.4-1.87,1.4-5.6-.47-24.72-.47-42.9-.47-15.86,0-25.65,0-33.58.47-1.4,0-2.33-.47-2.33-2.33-.47-3.73-1.4-20.52-1.4-30.78,0-2.33-.47-9.33-.47-13.06l-1.4-.93c-1.86,3.73-4.19,7.93-6.53,11.66-11.65,17.72-35,38.7-74.14,38.7-30.32,0-62-20.05-62-62.49,0-42,27.05-85.34,87.21-85.34,18.65,0,33.57,6.53,40.57,12.13a64.84,64.84,0,0,1,9.33,7.46Zm-42,104.93c18.19,0,35-17.72,43.84-43.37a51.26,51.26,0,0,0,3.26-16.79c0-5.13-1.4-11.19-4.2-17.72-6.06-15.85-20.51-34.51-40.57-34.51-23.78,0-34.51,30.31-34.51,62,0,32.65,13.06,50.37,31.71,50.37Z" transform="translate(-8.61 -116.58)"/>
</svg>
